<svg viewBox="105.8 89.5875 240 246" xmlns="http://www.w3.org/2000/svg" style="max-height: 500px" width="240" height="246">
  <g transform="matrix(1, 0, 0, 1, -73.338371, -119.055122)" fill-rule="evenodd" fill="none" stroke-width="1" stroke="none" id="Master/Stickers/Spider">
    <g fill-rule="nonzero" transform="translate(183.000000, 152.000000)" id="spider">
      <g id="stickers_expanded">
        <path fill="#CCC9C6" id="Shape" d="M233.39,278 C233.400002,277.893568 233.400002,277.786432 233.39,277.68 C233.34,240.38 233.08,200.98 232.04,161.38 C231.14,127.5 231.63,59.58 231.64,58.9 L231.64,58.79 C231.644917,58.7301008 231.644917,58.6698992 231.64,58.61 C231.64,58.61 231.64,58.52 231.64,58.48 C231.644476,58.4535211 231.644476,58.4264789 231.64,58.4 C231.627841,58.3453613 231.611115,58.29184 231.59,58.24 L231.59,58.09 L231.59,58.09 C231.567279,58.0379936 231.540531,57.9878411 231.51,57.94 C231.483478,57.8943592 231.453384,57.85089 231.42,57.81 L231.42,57.75 C231.380901,57.7087847 231.344175,57.6653814 231.31,57.62 L231.23,57.53 L231.23,57.53 L231.23,57.53 L231.11,57.44 L230.97,57.33 L230.91,57.33 L230.91,57.33 L230.8,57.28 L230.63,57.2 L230.58,57.2 L230.42,57.2 L230.26,57.2 L230.01,57.2 C229.970593,57.1902576 229.929407,57.1902576 229.89,57.2 C229.35,57.2 175.15,57.92 148.21,58.93 C142.31,59.15 136.11,59.44 130.12,59.71 C119.96,60.17 109.46,60.64 99.66,60.87 C90.27,61.09 81.36,61.23 71.93,61.37 L59.93,61.56 C51.14,61.7 11.22,62.82 2.74,63.33 C2.02546882,63.3728719 1.38808665,63.793685 1.06794919,64.433923 C0.747811732,65.0741611 0.793555473,65.8365568 1.18794919,66.433923 C1.58234291,67.0312893 2.26546882,67.3728719 2.98,67.33 C6.22,67.14 14.12,66.85 23.09,66.57 C43.88,70.57 54.78,83.57 60.27,93.72 C66.52,105.31 66.27,123.24 59.83,129.01 L57.7,129.7 C54,130.91 50.18,132.16 46.46,133.26 C45.5026428,133.539182 44.89723,134.48096 45.0407268,135.467815 C45.1842237,136.454671 46.0327788,137.18503 47.03,137.18 C47.2194204,137.178712 47.4077958,137.151801 47.59,137.1 C51.37,135.98 55.22,134.72 58.95,133.51 L61.17,132.78 C71.56,132.73 91.17,140.26 100.76,146.65 C110.12,152.9 116.44,163.65 120.89,172.37 C125.434873,181.310757 128.719418,190.837955 130.65,200.68 C132.85,211.15 134.17,230.79 131.91,249.33 C129.757305,252.983379 127.920628,256.813971 126.42,260.78 C126.049969,261.821057 126.593943,262.964969 127.635,263.335 C128.676057,263.705031 129.819969,263.161057 130.19,262.12 C131.632445,258.325216 133.39897,254.661685 135.47,251.17 C145.39,240.5 159.97,234.29 176.53,233.68 C192.08,233.1 203.2,240.38 210.22,245.91 C217.88,251.91 224.95,263.78 229.65,278.42 C229.65,283.7 229.65,288.95 229.65,294.14 C229.65,295.244569 230.545431,296.14 231.65,296.14 C232.754569,296.14 233.65,295.244569 233.65,294.14 C233.483333,288.68 233.396667,283.3 233.39,278 Z M159.88,137.9 C151.53,120.8 139.67,110.96 125.7,109.26 C131.09,107.07 136.43,104.82 141.7,102.6 C146.6,100.53 151.7,98.4 156.7,96.35 C165.25,94.49 171.85,94.52 176.33,96.45 C180.53,98.25 186.33,103.08 187.94,105.62 C193.42,114.21 193.41,124.53 187.94,137.2 C187.828264,137.469162 187.773775,137.758634 187.78,138.05 C182.45,149.11 176.78,160.14 171.15,170.88 C169.15,174.75 167.15,178.67 165.08,182.61 C165.65,178.83 166.08,174.91 166.47,170.72 C167.37,160.31 165,148.35 159.88,137.87 L159.88,137.9 Z M167.47,75.36 C167,70.96 164.72,67.84 162.32,65.13 C161.311014,64.010436 160.141637,63.0466274 158.85,62.27 C179.56,61.67 207.46,61.21 221.24,61.01 C218.93,62.32 216.59,63.72 214.29,65.09 C210.2,67.54 205.97,70.09 202.29,71.89 C189.34,78.24 175.79,84.09 163.47,89.21 C166.17,85 168,79.89 167.47,75.33 L167.47,75.36 Z M227.64,136.55 C224.763009,132.942846 220.867623,130.284367 216.46,128.92 C211.527183,127.187109 206.135602,127.286493 201.27,129.2 C200.74,129.41 197.94,130.54 194.94,132.1 C195.29,131.36 195.64,130.61 195.94,129.86 C202.94,114.52 217.82,84.64 227.55,66.7 C227.52,80.64 227.41,110.78 227.64,136.52 L227.64,136.55 Z M196,120.31 C196.145917,114.337357 194.490795,108.459064 191.25,103.44 C189.02,99.94 182.5,94.74 177.85,92.74 C175.178526,91.6687846 172.337317,91.0829333 169.46,91.01 C180.6,86.32 192.54,81.09 204.03,75.45 C207.87,73.56 212.17,70.99 216.33,68.5 C219.12,66.83 221.95,65.14 224.68,63.62 C216.38,78.87 203.94,103.6 196,120.31 Z M174.62,172.69 C180.38,161.61 186.28,150.22 191.77,138.78 C194.19,136.78 198.98,134.37 202.77,132.89 C206.764264,131.327747 211.187654,131.256745 215.23,132.69 C221.3,134.69 225.64,138.82 226.84,143.75 C226.968323,144.269817 227.299715,144.716477 227.76,144.99 C227.84,150.99 227.94,156.57 228.07,161.46 C228.33,171.32 228.543333,181.163333 228.71,190.99 C224.64,184.76 219.01,180.99 210.96,178.99 C199.75,176.14 186.8,177.17 177.96,181.6 C173.984277,183.587112 170.163517,185.870208 166.53,188.43 C169.21,183.11 171.94,177.86 174.63,172.69 L174.62,172.69 Z M130,63.36 C135.9,63.1 142,62.82 147.81,62.6 C151.97,63.47 156.58,64.68 159.3,67.75 C161.57,70.31 163.14,72.65 163.47,75.75 C164.09,81.58 159.55,89.26 155.04,92.65 C150.04,94.65 145.04,96.82 140.11,98.88 C134.11,101.42 127.98,104 121.8,106.49 C126.585468,99.3766713 127.939029,90.4959844 125.49,82.28 C123.394537,74.5718949 118.273675,68.0373871 111.29,64.16 C117.52,63.93 123.84,63.64 130,63.36 Z M63.51,91.47 C57.4451002,79.9274696 47.5425268,70.8630784 35.51,65.84 C46.05,65.53 55.9,65.28 59.76,65.22 L71.76,65.03 C81.15,64.89 90.02,64.75 99.37,64.53 C110.017033,65.5364088 118.921167,73.045535 121.71,83.37 C124.669747,93.1081896 121.297802,103.66194 113.24,109.88 C109.58,111.28 105.91,112.64 102.24,113.88 C98.11,115.31 93.89,116.88 89.81,118.46 C83.24,120.95 76.44,123.54 69.81,125.46 C68.51,125.84 67.19,126.24 65.87,126.65 C67.6806102,122.531458 68.6072259,118.078933 68.59,113.58 C68.7463284,105.906122 67.0083822,98.3120532 63.53,91.47 L63.51,91.47 Z M124.17,170.19 C119.5,161.07 112.83,149.74 102.7,142.97 C94.87,137.74 81.09,131.97 70.02,129.57 L70.83,129.33 C77.62,127.33 84.49,124.75 91.14,122.23 C95.14,120.69 99.38,119.1 103.46,117.69 C107.22,116.4 110.96,115.01 114.68,113.59 C126.8,111.35 143.8,114.09 156.26,139.59 C161.06,149.42 163.26,160.59 162.4,170.28 C161.47,180.28 160.29,188.68 157.58,197.18 C155.9,200.57 154.24,203.97 152.58,207.36 C147.82,217.43 142.95,227.47 138.13,237.18 C137.58,238.29 136.99,239.39 136.38,240.5 C137.45,224.4 136.22,208.87 134.24,199.5 C132.25445,189.314151 128.87254,179.451088 124.19,170.19 L124.17,170.19 Z M212.41,242.41 C208.08,239.01 194.89,228.63 176.11,229.33 C162.81,229.82 150.69,233.74 140.97,240.54 C141.24,240.03 141.51,239.54 141.76,239 C146.6,229.26 151.47,219.21 156.25,209.11 C157.85,205.72 159.51,202.32 161.19,198.92 C165.19,192.76 176.38,186.83 179.72,185.15 C187.72,181.15 199.59,180.21 209.93,182.83 C219.64,185.3 225.13,190.37 228.81,200.3 C229.15,222.81 229.3,245.05 229.35,266.66 C224.72,256 218.79,247.42 212.43,242.41 L212.41,242.41 Z"/>
      </g>
    </g>
  </g>
</svg>